# xmcd CD database file
#
# Track frame offsets:
#	150
#	20248
#	37575
#	55873
#	79499
#	96974
#	121423
#	132823
#	145199
#	164248
#	186598
#	202574
#	218877
#
# Disc length: 3213 seconds
#
# Revision: 1
# Processed by: cddbd v1.5.2PL0 Copyright (c) Steve Scherf et al.
# Submitted via: CDex 1.70beta2
#
DISCID=bc0c8b0d
DTITLE=Gottfried david gfrerer - Stainless steel
DYEAR=1998
DGENRE=Blues
TTITLE0=Stainless steel
TTITLE1=Dance of the dragon fly
TTITLE2=Another land
TTITLE3=The lexington murder
TTITLE4=Drunkard's lullaby
TTITLE5=Don't cry anymore
TTITLE6=The hills of Antietam
TTITLE7=Last one in the line
TTITLE8=Luzia
TTITLE9=Resting in little Cuba
TTITLE10=Cool walking
TTITLE11=Black city
TTITLE12=The boogie cat
EXTD=YEAR: 1998
EXTT0=
EXTT1=
EXTT2=
EXTT3=
EXTT4=
EXTT5=
EXTT6=
EXTT7=
EXTT8=
EXTT9=
EXTT10=
EXTT11=
EXTT12=
PLAYORDER=
